<svg width="478" height="540" xmlns="http://www.w3.org/2000/svg" xmlns:xlink="http://www.w3.org/1999/xlink" xml:space="preserve" overflow="hidden"><defs><clipPath id="clip0"><rect x="401" y="90" width="478" height="540"/></clipPath></defs><g clip-path="url(#clip0)" transform="translate(-401 -90)"><path d="M477.248 374.389C476.571 369.837 475.446 365.411 474.039 361.112 472.629 356.813 470.937 352.637 469.052 348.56 465.271 340.413 460.722 332.674 455.748 325.203 450.759 317.743 445.329 310.551 439.58 303.58 433.838 296.6 427.761 289.855 421.461 283.267 419.874 281.635 418.303 279.978 416.681 278.372 415.875 277.564 415.07 276.753 414.264 275.944 413.448 275.144 412.634 274.344 411.818 273.541 410.569 272.303 409.299 271.089 408.026 269.873 409.285 268.667 410.542 267.466 411.78 266.242 415.064 263.057 418.26 259.792 421.421 256.513 427.721 249.928 433.79 243.18 439.534 236.203 445.278 229.229 450.716 222.048 455.697 214.583 456.315 213.646 456.93 212.708 457.548 211.774 458.146 210.826 458.745 209.878 459.344 208.93 459.948 207.99 460.512 207.015 461.095 206.059L461.96 204.62 462.795 203.159C465.021 199.271 467.121 195.312 468.998 191.233 470.881 187.159 472.575 182.984 473.982 178.687 475.389 174.393 476.512 169.967 477.189 165.421 477.868 160.877 478.048 156.183 477.551 151.489L477.463 150.611C477.428 150.318 477.371 150.026 477.328 149.733L477.041 147.979C476.936 147.397 476.786 146.817 476.657 146.236 476.517 145.656 476.405 145.076 476.217 144.507L475.696 142.794C475.65 142.651 475.61 142.509 475.561 142.367L475.403 141.948 475.083 141.11 474.761 140.275 474.6 139.859 474.399 139.421 473.579 137.681 473.37 137.248C473.303 137.111 473.244 137.02 473.179 136.902L472.803 136.239 472.427 135.575 472.239 135.242C472.207 135.175 471.904 134.673 471.915 134.708 471.254 133.72 470.631 132.71 469.882 131.797 469.516 131.335 469.167 130.857 468.786 130.411L467.613 129.104C467.414 128.889 467.226 128.666 467.019 128.459L466.393 127.852 465.142 126.649C461.691 123.582 457.846 121.195 453.904 119.35 449.959 117.5 445.906 116.195 441.873 115.22 437.837 114.24 433.806 113.603 429.818 113.198 425.828 112.79 421.877 112.604 417.975 112.564 414.074 112.529 410.223 112.682 406.417 112.905 404.519 113.04 402.626 113.163 400.754 113.351 398.877 113.507 397.016 113.732 395.166 113.939 391.468 114.393 387.816 114.898 384.22 115.499 383.32 115.65 382.423 115.797 381.529 115.948 380.638 116.112 379.749 116.273 378.86 116.437 377.082 116.748 375.326 117.116 373.575 117.462 371.824 117.806 370.092 118.195 368.365 118.558 366.644 118.95 364.933 119.339 363.231 119.726 349.643 122.951 336.841 126.762 324.824 130.801 322.249 131.668 319.711 132.544 317.206 133.422 316.714 130.806 316.204 128.169 315.67 125.5 313.161 113.072 310.062 100.077 306.067 86.6957 304.052 80.0117 301.805 73.231 299.235 66.4047 297.957 62.9889 296.574 59.5704 295.115 56.1411 294.369 54.4332 293.633 52.7118 292.83 51.0066 292.057 49.2879 291.219 47.5881 290.384 45.8775 288.678 42.4697 286.882 39.0566 284.903 35.6944 282.916 32.335 280.781 29.0051 278.434 25.7504 276.087 22.4983 273.519 19.3242 270.654 16.3138 267.791 13.3035 264.633 10.4462 261.054 7.95149 257.482 5.45675 253.489 3.31916 249.101 1.86099 248.545 1.69986 247.987 1.53874 247.431 1.37761L246.593 1.13861C246.311 1.06342 246.024 1.0124 245.739 0.947949 245.167 0.827105 244.592 0.706262 244.018 0.585419 243.878 0.553194 243.725 0.529025 243.566 0.507542L243.096 0.443092 242.157 0.316878 241.214 0.19872C241.053 0.179922 240.892 0.158439 240.779 0.153068L240.4 0.126214 238.88 0.0241687C238.926 0.0241687 238.4-0.00268541 238.284 0.00268541L237.838 0.00268541C237.838 0.00268541 236.944 0.013427 236.944 0.013427L236.047 0.0241687C235.897 0.0268541 235.749 0.0241687 235.599 0.0349103L235.153 0.0698206C230.384 0.386699 225.649 1.58439 221.347 3.52594 217.026 5.44332 213.047 7.95149 209.448 10.8114 205.844 13.6741 202.574 16.8617 199.555 20.2292 196.537 23.5994 193.766 27.1548 191.177 30.8231 186.01 38.1704 181.585 45.9795 177.602 54.0223 173.636 62.0732 170.123 70.3711 166.962 78.8355 163.788 87.2972 160.987 95.9335 158.431 104.683 157.811 106.874 157.161 109.062 156.581 111.27 156.283 112.371 155.985 113.475 155.686 114.578 155.402 115.685 155.114 116.791 154.83 117.9 154.381 119.6 153.965 121.308 153.549 123.018 151.876 122.53 150.206 122.041 148.527 121.584 144.128 120.333 139.7 119.2 135.283 118.101 126.432 115.937 117.551 114.055 108.638 112.57 99.7279 111.082 90.7882 109.965 81.8351 109.382 80.7153 109.315 79.5954 109.25 78.4783 109.183 77.3558 109.138 76.236 109.095 75.1189 109.049 74.0017 108.995 72.8766 108.993 71.7594 108.968L70.0811 108.939 68.4 108.947C63.9207 108.963 59.4415 109.124 54.9703 109.538 50.4991 109.943 46.0386 110.566 41.6131 111.493 37.1902 112.422 32.7969 113.663 28.5217 115.349 24.2492 117.033 20.0922 119.224 16.2762 122.001L15.5592 122.516C15.3229 122.694 15.0974 122.887 14.8664 123.072L13.4915 124.197C13.0376 124.579 12.6107 125 12.1729 125.403 11.7406 125.814 11.2948 126.201 10.8947 126.649L9.67283 127.957C9.57347 128.067 9.46874 128.174 9.37207 128.287L9.08742 128.636 8.52079 129.332 7.95686 130.027 7.67758 130.376 7.39829 130.769 6.30265 132.348 6.03411 132.742C5.94818 132.871 5.89984 132.968 5.83002 133.081L5.44332 133.739 5.05662 134.397 4.86327 134.727C4.82299 134.789 4.53834 135.302 4.56251 135.277 4.03885 136.343 3.47492 137.388 3.05868 138.492 2.84116 139.04 2.60216 139.579 2.40612 140.133L1.86099 141.803C1.77505 142.082 1.67569 142.356 1.6005 142.638L1.38836 143.484C1.24871 144.048 1.11176 144.609 0.972117 145.17 0.0429665 149.693-0.102045 154.218 0.271226 158.552 0.641812 162.894 1.53874 167.056 2.70958 171.036 3.87773 175.021 5.34396 178.829 6.98474 182.487 8.62553 186.144 10.4409 189.66 12.3582 193.059 14.2783 196.456 16.338 199.714 18.4326 202.899 19.4987 204.478 20.5514 206.054 21.6524 207.582 22.7266 209.129 23.8518 210.627 24.9555 212.128 27.1978 215.104 29.4616 218.015 31.7818 220.829 32.3618 221.533 32.9392 222.236 33.5139 222.934 34.102 223.625 34.6874 224.315 35.2701 225.002 36.4302 226.385 37.6252 227.722 38.7988 229.065 39.9723 230.411 41.1753 231.713 42.3542 233.029 43.5519 234.323 44.7469 235.61 45.9339 236.89 55.5208 247.044 65.2232 256.225 74.7295 264.615 76.7677 266.411 78.7952 268.17 80.8093 269.899 78.7925 271.632 76.7623 273.396 74.7188 275.192 65.2097 283.579 55.5047 292.76 45.9151 302.911 41.1324 308 36.3846 313.333 31.7576 318.973 29.4374 321.787 27.1709 324.695 24.9286 327.671 23.8249 329.172 22.6997 330.67 21.6256 332.217 20.5246 333.745 19.4719 335.321 18.4058 336.9 16.3058 340.083 14.2515 343.343 12.326 346.74 10.4086 350.139 8.5933 353.655 6.94983 357.315 5.30636 360.972 3.84013 364.783 2.66929 368.771 1.49309 372.753 0.59616 376.918 0.225574 381.266-0.147697 385.606-0.00537081 390.133 0.926465 394.663 1.06611 395.227 1.20306 395.789 1.3427 396.353L1.55485 397.198C1.63004 397.48 1.7294 397.757 1.81533 398.034L2.36047 399.707C2.40075 399.844 2.45715 399.989 2.51891 400.136L2.69615 400.574 3.05868 401.452 3.42658 402.33C3.48834 402.478 3.55279 402.628 3.6065 402.73L3.773 403.071 4.44435 404.438C4.42018 404.401 4.66187 404.868 4.72363 404.967L4.9492 405.351 5.40304 406.122 5.86224 406.893C5.94012 407.019 6.01263 407.151 6.09587 407.274L6.35099 407.642C9.00954 411.614 12.4146 415.116 16.2467 417.871 20.068 420.653 24.2277 422.847 28.5056 424.533 32.7861 426.225 37.1821 427.46 41.6077 428.392 46.0359 429.321 50.4991 429.944 54.9703 430.35 63.918 431.15 72.8927 431.08 81.8485 430.506 90.8043 429.915 99.7467 428.808 108.66 427.313 117.575 425.83 126.456 423.94 135.31 421.778 137.517 421.219 139.738 420.688 141.94 420.086 143.044 419.793 144.147 419.501 145.251 419.205 146.352 418.899 147.453 418.593 148.554 418.287 150.251 417.825 151.938 417.331 153.627 416.84 154.04 418.531 154.451 420.223 154.894 421.907 156.011 426.343 157.241 430.742 158.501 435.119 161.052 443.868 163.864 452.499 167.032 460.961 170.201 469.422 173.7 477.72 177.675 485.769 178.177 486.773 178.679 487.775 179.181 488.776 179.702 489.77 180.226 490.763 180.747 491.754 181.257 492.748 181.818 493.723 182.355 494.706L183.169 496.175 184.017 497.627C186.273 501.5 188.65 505.297 191.244 508.962 193.83 512.631 196.599 516.183 199.617 519.551 202.633 522.918 205.904 526.101 209.502 528.961 213.098 531.821 217.072 534.323 221.388 536.241L222.193 536.603C222.464 536.719 222.746 536.818 223.023 536.926L224.685 537.554C225.241 537.755 225.821 537.914 226.388 538.094 226.96 538.263 227.518 538.456 228.106 538.577L229.849 538.983C229.994 539.015 230.139 539.05 230.284 539.079L230.727 539.152 231.614 539.294 232.497 539.434 232.94 539.501 233.418 539.547C234.057 539.6 234.696 539.654 235.336 539.708L235.814 539.743C235.967 539.753 236.077 539.748 236.208 539.751L236.971 539.756 237.734 539.761 238.115 539.761C238.188 539.769 238.776 539.759 238.741 539.751 239.925 539.67 241.112 539.638 242.277 539.447 242.86 539.361 243.448 539.297 244.026 539.189 244.6 539.068 245.172 538.948 245.744 538.827 246.029 538.762 246.316 538.711 246.598 538.636L247.436 538.397 249.106 537.914C253.489 536.458 257.477 534.321 261.046 531.831 264.623 529.339 267.778 526.482 270.638 523.477 273.506 520.472 276.071 517.301 278.418 514.049 280.765 510.797 282.9 507.469 284.887 504.11 286.869 500.748 288.66 497.335 290.37 493.93 291.203 492.216 292.043 490.519 292.817 488.8 293.62 487.095 294.355 485.374 295.102 483.666 296.557 480.237 297.946 476.821 299.224 473.405 299.544 472.551 299.863 471.7 300.183 470.851 300.486 469.997 300.792 469.146 301.096 468.295 301.713 466.6 302.275 464.895 302.849 463.206 303.429 461.517 303.956 459.822 304.504 458.146 305.025 456.46 305.543 454.784 306.058 453.117 310.06 439.738 313.159 426.743 315.67 414.318 316.207 411.654 316.714 409.02 317.206 406.409 319.716 407.29 322.257 408.168 324.838 409.038 336.855 413.08 349.659 416.893 363.244 420.124 370.041 421.722 377.036 423.166 384.233 424.353 387.832 424.955 391.484 425.465 395.182 425.919 397.035 426.126 398.893 426.349 400.773 426.507 402.647 426.695 404.538 426.819 406.439 426.955 410.244 427.184 414.095 427.334 418 427.299 421.904 427.259 425.854 427.074 429.845 426.668 433.835 426.263 437.866 425.626 441.908 424.649 445.944 423.674 449.999 422.369 453.949 420.519 457.894 418.674 461.745 416.284 465.201 413.214L466.455 412.008 467.081 411.402C467.288 411.195 467.476 410.972 467.674 410.757L468.85 409.449C468.947 409.345 469.047 409.224 469.143 409.098L469.433 408.724 470.013 407.972 470.588 407.215C470.685 407.086 470.784 406.957 470.843 406.861L471.055 406.544 471.904 405.279C471.882 405.319 472.17 404.876 472.221 404.771L472.441 404.382 472.881 403.603 473.319 402.822C473.389 402.69 473.467 402.561 473.534 402.427L473.724 402.021C475.835 397.733 477.167 393.033 477.634 388.337 478.134 383.637 477.954 378.935 477.275 374.389ZM325.651 133.462C337.746 129.912 350.604 126.665 364.155 124.128 370.93 122.865 377.877 121.794 384.972 120.999 392.064 120.185 399.315 119.707 406.654 119.627 410.322 119.616 414.014 119.686 417.707 119.93 421.399 120.183 425.097 120.569 428.763 121.16 432.428 121.746 436.064 122.54 439.59 123.617 443.114 124.691 446.537 126.042 449.693 127.766 452.848 129.482 455.735 131.561 458.171 133.999L459.038 134.95 459.473 135.422C459.615 135.581 459.739 135.755 459.873 135.922L460.668 136.921C460.923 137.259 461.149 137.622 461.39 137.968 461.895 138.65 462.279 139.408 462.714 140.13 462.757 140.208 462.771 140.229 462.773 140.235 462.773 140.24 462.776 140.243 462.781 140.251L462.951 140.592 463.286 141.277 463.622 141.961C463.673 142.071 463.743 142.2 463.78 142.294L463.88 142.563C464.011 142.92 464.148 143.275 464.288 143.626L464.393 143.892 464.487 144.198 464.677 144.808 464.871 145.415 464.967 145.718C464.997 145.82 465.016 145.928 465.043 146.03L465.341 147.278C465.456 147.689 465.502 148.124 465.58 148.549 465.644 148.978 465.735 149.397 465.784 149.83L465.913 151.135C465.931 151.352 465.964 151.567 465.974 151.787L465.999 152.451C466.154 155.982 465.816 159.637 465.037 163.305 463.469 170.652 460.426 177.997 456.635 185.094 454.744 188.65 452.623 192.146 450.378 195.594 448.122 199.037 445.759 202.453 443.237 205.796 442.625 206.642 441.964 207.461 441.33 208.296L440.372 209.545 439.389 210.78C438.728 211.602 438.084 212.434 437.412 213.253 436.741 214.07 436.067 214.886 435.393 215.705 434.724 216.527 434.021 217.325 433.336 218.138 432.649 218.949 431.958 219.76 431.249 220.558 430.546 221.358 429.84 222.161 429.133 222.964 428.416 223.759 427.697 224.551 426.977 225.346 426.263 226.146 425.532 226.93 424.796 227.717 424.061 228.501 423.336 229.296 422.594 230.078 421.101 231.632 419.622 233.203 418.094 234.739 415.073 237.838 411.96 240.884 408.816 243.91 404.081 248.414 399.239 252.861 394.282 257.224 393.385 256.427 392.483 255.632 391.578 254.842 390.708 254.085 389.838 253.328 388.968 252.571 388.09 251.821 387.214 251.072 386.336 250.323 384.585 248.814 382.802 247.345 381.032 245.857 366.797 234.028 351.896 222.824 336.506 212.222 333.178 209.924 329.824 207.66 326.449 205.423 326.137 201.242 325.761 196.886 325.337 192.361 325.114 189.931 324.843 187.457 324.599 184.931 324.319 182.409 324.064 179.834 323.75 177.218 323.597 175.91 323.441 174.589 323.285 173.257 323.119 171.928 322.95 170.585 322.778 169.232 322.442 166.522 322.061 163.775 321.688 160.977 320.903 155.388 320.012 149.634 319.034 143.715 318.602 141.14 318.137 138.529 317.654 135.898 320.283 135.073 322.947 134.262 325.651 133.473ZM315.347 403.19C312.893 402.408 310.468 401.619 308.078 400.826 302.409 398.933 296.944 396.97 291.662 395.029 276.374 389.33 262.737 383.54 250.849 378.103 263.758 371.663 276.487 364.802 289.003 357.583 297.108 352.881 305.151 348.058 313.062 343.045 315.036 341.785 317.018 340.536 318.983 339.266 320.944 337.988 322.915 336.729 324.864 335.434 325.197 335.214 325.528 334.994 325.858 334.774 324.623 347.795 322.821 362.508 320.114 378.61 319.155 384.155 318.121 389.87 316.932 395.727 316.424 398.189 315.898 400.679 315.347 403.19ZM328.866 273.305C328.858 274.424 328.847 275.815 328.836 277.467 328.812 279.118 328.785 281.033 328.753 283.2 328.702 285.367 328.648 287.787 328.586 290.448 328.541 291.78 328.495 293.171 328.447 294.624 328.423 295.349 328.396 296.09 328.369 296.845 328.337 297.599 328.304 298.37 328.269 299.154 328.157 301.934 328.02 304.898 327.851 308.038 326.793 308.752 325.732 309.464 324.671 310.173 320.901 312.697 317.095 315.181 313.271 317.641 311.365 318.879 309.437 320.09 307.522 321.314 305.602 322.533 303.663 323.731 301.735 324.94 293.988 329.728 286.176 334.438 278.267 338.979 261.352 348.732 244.114 357.932 226.651 366.432 223.858 365.014 221.229 363.655 218.775 362.369 218.079 362.006 217.394 361.649 216.723 361.3 216.054 360.945 215.402 360.596 214.76 360.255 213.479 359.573 212.249 358.918 211.073 358.29 208.737 357.011 206.612 355.849 204.711 354.809 202.818 353.754 201.148 352.819 199.706 352.014 198.269 351.197 197.061 350.513 196.086 349.959 194.139 348.85 193.137 348.278 193.137 348.278 193.137 348.278 194.139 348.853 196.083 349.968 197.055 350.523 198.264 351.214 199.698 352.033 201.137 352.841 202.807 353.781 204.695 354.842 210.13 357.857 217.408 361.85 226.428 366.539 211.344 373.876 196.091 380.694 180.739 386.897 178.66 387.724 176.59 388.57 174.506 389.368 173.467 389.773 172.425 390.176 171.385 390.579 170.343 390.974 169.301 391.368 168.26 391.761 168.144 391.803 168.031 391.846 167.916 391.889 167.18 387.389 166.493 382.866 165.845 378.328 164.597 369.464 163.514 360.532 162.62 351.552 162.397 349.307 162.164 347.062 161.965 344.809L161.656 341.433 161.377 338.05 161.1 334.666 160.85 331.277C160.778 330.372 160.714 329.464 160.652 328.557 169.234 334.032 176.34 338.342 181.673 341.546 183.537 342.652 185.183 343.627 186.606 344.471 188.035 345.303 189.235 346.004 190.202 346.568 192.138 347.693 193.137 348.273 193.137 348.273 193.137 348.273 192.141 347.69 190.207 346.56 189.241 345.993 188.043 345.29 186.617 344.452 185.199 343.606 183.556 342.623 181.695 341.514 179.844 340.389 177.777 339.129 175.499 337.746 174.369 337.043 173.187 336.304 171.955 335.536 171.34 335.152 170.709 334.76 170.069 334.357 169.43 333.952 168.78 333.538 168.117 333.117 165.765 331.629 163.267 330.028 160.633 328.31 160.544 327.037 160.458 325.764 160.372 324.488 160.072 319.961 159.822 315.422 159.604 310.881 159.484 308.612 159.4 306.338 159.298 304.066 159.202 301.791 159.135 299.517 159.051 297.242 158.777 288.139 158.605 279.019 158.624 269.899 158.635 250.374 159.288 230.846 160.657 211.47 163.281 209.76 165.77 208.165 168.115 206.682 168.778 206.261 169.428 205.847 170.067 205.442 170.709 205.042 171.337 204.649 171.952 204.263 173.185 203.495 174.366 202.759 175.497 202.053 177.771 200.67 179.839 199.41 181.692 198.285 183.553 197.173 185.196 196.193 186.614 195.347 188.04 194.509 189.238 193.806 190.205 193.239 192.138 192.109 193.134 191.526 193.134 191.526 193.134 191.526 192.135 192.106 190.199 193.231 189.233 193.795 188.032 194.496 186.604 195.328 185.183 196.172 183.537 197.146 181.67 198.253 176.34 201.451 169.245 205.759 160.673 211.223 161.86 194.491 163.582 177.873 165.888 161.476 166.211 159.263 166.514 157.045 166.863 154.843 167.032 153.74 167.204 152.639 167.373 151.535 167.553 150.434 167.733 149.335 167.913 148.237 167.932 148.116 167.953 147.995 167.972 147.875 172.239 149.489 176.498 151.151 180.752 152.861 189.053 156.213 197.329 159.741 205.552 163.458 207.609 164.387 209.668 165.308 211.717 166.262L214.798 167.682 217.867 169.13 220.936 170.582 223.995 172.062C224.817 172.454 225.633 172.852 226.452 173.249 217.419 177.943 210.133 181.942 204.692 184.96 202.805 186.021 201.134 186.961 199.695 187.769 198.261 188.588 197.052 189.278 196.08 189.834 194.139 190.949 193.134 191.523 193.134 191.523 193.134 191.523 194.139 190.951 196.083 189.842 197.058 189.289 198.266 188.604 199.703 187.788 201.145 186.982 202.818 186.05 204.709 184.992 206.61 183.953 208.731 182.79 211.07 181.512 212.246 180.886 213.474 180.231 214.755 179.546 215.396 179.205 216.049 178.856 216.718 178.502 217.389 178.153 218.071 177.795 218.769 177.433 221.235 176.141 223.869 174.777 226.672 173.354 227.819 173.912 228.966 174.476 230.112 175.04 234.184 177.043 238.239 179.095 242.28 181.179 244.305 182.21 246.316 183.274 248.338 184.321 250.355 185.374 252.358 186.456 254.372 187.519 256.376 188.604 258.376 189.689 260.38 190.774L266.368 194.069 272.33 197.418 278.224 200.796 284.215 204.284 290.056 207.751 295.905 211.29 301.724 214.873C309.464 219.674 317.106 224.613 324.658 229.648 325.726 230.365 326.787 231.085 327.851 231.804 328.02 234.927 328.157 237.879 328.269 240.647 328.304 241.431 328.337 242.202 328.369 242.957 328.396 243.711 328.42 244.453 328.447 245.178 328.495 246.63 328.543 248.021 328.589 249.353 328.651 252.017 328.704 254.434 328.756 256.601 328.788 258.768 328.815 260.683 328.839 262.335 328.849 263.986 328.86 265.377 328.868 266.497 328.882 268.737 328.887 269.891 328.887 269.891 328.887 269.891 328.884 268.737 328.876 266.497 328.871 265.377 328.866 263.986 328.858 262.335 328.839 260.683 328.817 258.768 328.79 256.601 328.686 250.387 328.506 242.095 328.055 231.941 334.435 236.257 340.751 240.642 346.963 245.132 350.623 247.772 354.253 250.438 357.852 253.132 359.643 254.491 361.432 255.849 363.217 257.206 364.987 258.583 366.773 259.937 368.532 261.32 370.288 262.705 372.055 264.075 373.79 265.482 374.66 266.18 375.53 266.878 376.4 267.577 377.262 268.283 378.124 268.986 378.986 269.693 379.08 269.771 379.174 269.848 379.271 269.924 375.742 272.81 372.171 275.668 368.564 278.498 361.512 284.011 354.318 289.414 346.987 294.678 345.153 295.994 343.327 297.32 341.474 298.615L338.705 300.572 335.915 302.506 333.122 304.436 330.31 306.346C329.561 306.861 328.809 307.369 328.055 307.879 328.506 297.71 328.686 289.401 328.793 283.179 328.817 281.012 328.841 279.097 328.86 277.445 328.868 275.794 328.874 274.403 328.879 273.283 328.884 271.043 328.89 269.889 328.89 269.889 328.89 269.889 328.884 271.043 328.871 273.283ZM137.71 298.013C137.815 300.352 137.904 302.691 138.022 305.03 138.148 307.366 138.253 309.705 138.398 312.039 138.422 312.436 138.449 312.834 138.473 313.231 127.812 305.65 115.972 296.735 103.383 286.34 99.0593 282.736 94.6284 278.984 90.1518 275.026 88.2747 273.356 86.3815 271.656 84.4802 269.921 86.3842 268.186 88.2801 266.481 90.1625 264.808 94.6364 260.847 99.0673 257.093 103.391 253.492 115.969 243.102 127.801 234.186 138.454 226.608 137.576 241.007 137.154 255.463 137.146 269.91 137.168 279.282 137.321 288.654 137.708 298.013ZM316.918 144.096C318.113 149.95 319.147 155.665 320.106 161.21 322.815 177.301 324.62 192.004 325.855 205.02 321.626 202.225 317.364 199.472 313.073 196.76 311.094 195.508 309.104 194.276 307.111 193.04L301.109 189.383 295.035 185.755 289.046 182.256 282.9 178.754 276.761 175.33 270.592 171.963C268.525 170.864 266.454 169.766 264.386 168.668 262.308 167.588 260.237 166.495 258.154 165.429 256.067 164.371 253.988 163.292 251.894 162.25 251.537 162.072 251.179 161.895 250.822 161.721 262.716 156.277 276.361 150.485 291.657 144.778 296.939 142.837 302.404 140.874 308.07 138.978 310.454 138.186 312.874 137.399 315.326 136.617 315.876 139.134 316.405 141.628 316.913 144.094ZM179.058 96.7069C179.624 94.6149 180.244 92.5499 180.843 90.4767 181.147 89.4428 181.472 88.417 181.783 87.3885 182.097 86.36 182.412 85.3342 182.747 84.3164 183.078 83.2959 183.405 82.2782 183.736 81.2604 184.079 80.248 184.42 79.2383 184.761 78.2286 185.097 77.2162 185.454 76.2145 185.811 75.2129 186.171 74.2139 186.512 73.2042 186.888 72.216 188.344 68.2335 189.915 64.3235 191.547 60.47 193.183 56.6164 194.952 52.8622 196.811 49.1886 198.672 45.5203 200.637 41.938 202.77 38.5222 207.018 31.6932 211.852 25.3878 217.427 20.3634 222.993 15.374 229.385 11.7997 236.098 10.9914L236.412 10.943C236.517 10.9296 236.622 10.9269 236.727 10.9189L237.358 10.8732 237.989 10.8249 238.306 10.8007C238.443 10.7873 238.171 10.79 238.469 10.7926L239.992 10.8034 240.373 10.8034C240.513 10.8034 240.604 10.8141 240.696 10.8222L241.262 10.8705 241.832 10.9135 242.116 10.9323C242.21 10.935 242.307 10.943 242.414 10.9645L243.674 11.1525C243.883 11.1874 244.095 11.2062 244.305 11.2492L244.931 11.3915 246.185 11.6681C249.506 12.5543 252.745 14.0125 255.806 15.8842 258.873 17.7505 261.752 20.0385 264.445 22.5494 267.142 25.0602 269.644 27.8101 271.986 30.6915 274.328 33.5703 276.514 36.5752 278.576 39.6473 280.636 42.7221 282.54 45.8855 284.368 49.0651 287.967 55.459 291.181 61.9738 294.025 68.5235 296.885 75.0652 299.436 81.6149 301.73 88.1136 304.026 94.6096 306.067 101.055 307.919 107.4 309.783 113.743 311.413 119.997 312.906 126.12 313.578 128.862 314.209 131.58 314.81 134.273 312.294 135.17 309.81 136.072 307.366 136.983 301.751 139.093 296.321 141.199 291.087 143.312 288.48 144.389 285.907 145.428 283.394 146.492 282.137 147.021 280.888 147.544 279.653 148.065 278.42 148.597 277.201 149.121 275.99 149.642 273.568 150.678 271.21 151.744 268.887 152.762 266.575 153.812 264.298 154.816 262.082 155.837 257.944 157.735 253.978 159.591 250.194 161.414 246.569 159.618 242.935 157.848 239.283 156.113 222.4 148.1 205.248 140.79 187.884 134.391 182.433 132.377 176.96 130.457 171.471 128.628 172.776 122.135 174.202 115.698 175.752 109.328 176.802 105.091 177.876 100.875 179.055 96.7095ZM76.5851 262.563C67.4628 253.865 58.2223 244.351 49.2504 233.885 44.7711 228.652 40.3697 223.168 36.1321 217.421 31.8811 211.685 27.8423 205.646 24.1015 199.33 22.2566 196.158 20.4735 192.925 18.8381 189.606 17.2108 186.284 15.6989 182.887 14.375 179.417 13.0511 175.951 11.9205 172.403 11.0907 168.813 10.2583 165.222 9.7158 161.584 9.63255 157.988 9.54125 154.395 9.89841 150.855 10.79 147.531L11.1793 146.304 11.37 145.691C11.4371 145.487 11.5258 145.294 11.601 145.095L12.0682 143.908C12.232 143.516 12.4334 143.143 12.6134 142.759 12.949 141.98 13.4163 141.268 13.8245 140.53 13.8701 140.455 13.8836 140.431 13.8836 140.425 13.8862 140.42 13.8889 140.417 13.8943 140.412L14.1064 140.095 14.5307 139.461 14.955 138.827C15.0248 138.728 15.1 138.602 15.1645 138.524L15.3471 138.304C15.5915 138.011 15.8278 137.716 16.0641 137.418L16.2413 137.195 16.4589 136.961 16.8912 136.491 17.3209 136.021 17.5357 135.785C17.6109 135.71 17.6915 135.637 17.7693 135.565L18.7039 134.681C19.0019 134.375 19.3564 134.117 19.684 133.838 20.0224 133.567 20.3393 133.279 20.6911 133.019L21.7572 132.254C21.9371 132.127 22.1063 131.993 22.2916 131.872L22.8555 131.52C25.8363 129.622 29.1689 128.086 32.7378 126.926 39.8863 124.608 47.768 123.572 55.8108 123.306 59.8362 123.166 63.9234 123.255 68.0321 123.475 72.1434 123.709 76.2817 124.047 80.436 124.56 81.4752 124.67 82.5145 124.828 83.5537 124.96L85.114 125.167 86.6769 125.4C87.7188 125.562 88.7634 125.704 89.8054 125.876 90.8473 126.05 91.8919 126.225 92.9392 126.399 93.9839 126.569 95.0285 126.778 96.0758 126.966 97.1204 127.157 98.1677 127.347 99.215 127.565 100.26 127.774 101.307 127.984 102.354 128.193 103.402 128.419 104.449 128.644 105.496 128.867 106.544 129.085 107.591 129.326 108.641 129.568 109.688 129.813 110.738 130.044 111.785 130.296 113.88 130.812 115.98 131.308 118.075 131.864 122.269 132.933 126.461 134.104 130.656 135.315 136.924 137.163 143.194 139.134 149.454 141.244 149.212 142.421 148.976 143.599 148.742 144.778 148.522 145.909 148.302 147.042 148.081 148.175 147.872 149.309 147.66 150.445 147.45 151.58 147.018 153.85 146.637 156.13 146.234 158.407 143.108 176.649 140.855 195.157 139.367 213.785 139.042 217.816 138.758 221.852 138.505 225.894 135.041 228.254 131.459 230.757 127.75 233.386 125.758 234.793 123.752 236.265 121.684 237.739 119.638 239.243 117.535 240.749 115.427 242.331 114.371 243.118 113.305 243.913 112.229 244.713 111.16 245.524 110.083 246.34 108.995 247.165 106.817 248.808 104.629 250.516 102.392 252.235 97.9448 255.71 93.4065 259.359 88.7688 263.164 86.7547 264.829 84.7273 266.532 82.6864 268.267 80.6589 266.403 78.626 264.502 76.5878 262.555ZM130.634 404.446C126.44 405.655 122.25 406.834 118.053 407.894 115.959 408.45 113.859 408.947 111.767 409.463 110.719 409.715 109.669 409.949 108.622 410.19 107.575 410.432 106.527 410.674 105.48 410.891 104.433 411.117 103.385 411.34 102.338 411.565 101.291 411.775 100.244 411.984 99.1989 412.194 98.1543 412.411 97.107 412.602 96.0624 412.793 95.0177 412.981 93.9731 413.19 92.9285 413.359 88.75 414.09 84.5796 414.683 80.4279 415.196 76.2736 415.706 72.1381 416.053 68.0267 416.278 63.918 416.498 59.8335 416.59 55.8108 416.45 47.7734 416.184 39.8944 415.153 32.7566 412.836 25.651 410.51 19.3618 406.761 15.3041 401.353L15.1054 401.106C15.041 401.022 14.9873 400.931 14.9255 400.845L14.571 400.322 14.2139 399.798 14.0339 399.537C13.9534 399.425 14.093 399.658 13.9453 399.401L13.1934 398.077 13.0054 397.746C12.9329 397.625 12.898 397.542 12.8577 397.459L12.616 396.943 12.369 396.43 12.2428 396.175C12.1998 396.092 12.1568 396.006 12.1219 395.901L11.6547 394.717C11.5795 394.518 11.4909 394.325 11.4237 394.124L11.2331 393.511 10.8437 392.287C9.95212 388.968 9.59496 385.431 9.68358 381.846 9.76682 378.256 10.3093 374.62 11.1364 371.032 11.9635 367.441 13.094 363.897 14.4153 360.433 15.7365 356.963 17.2484 353.569 18.8757 350.247 20.5111 346.925 22.2942 343.694 24.1337 340.523 27.8718 334.21 31.908 328.167 36.1563 322.431 40.3939 316.685 44.7899 311.201 49.2692 305.964 53.7484 300.728 58.3082 295.738 62.8761 290.961 67.4386 286.176 72.0387 281.637 76.5959 277.282 78.6368 275.329 80.675 273.425 82.7052 271.556 84.7407 273.288 86.7628 274.988 88.7742 276.648 93.4092 280.456 97.9475 284.105 102.395 287.58 104.631 289.299 106.817 291.009 108.995 292.653 110.083 293.477 111.16 294.296 112.229 295.105 113.303 295.905 114.369 296.7 115.427 297.487 117.535 299.066 119.638 300.575 121.681 302.079 123.746 303.556 125.755 305.025 127.747 306.434 131.461 309.069 135.052 311.574 138.521 313.94 138.779 317.976 139.061 322.01 139.386 326.038 140.887 344.664 143.132 363.174 146.274 381.411 147.254 387.139 148.328 392.837 149.489 398.506 143.213 400.622 136.924 402.607 130.634 404.449ZM312.922 413.711C309.95 425.962 306.332 438.72 301.754 451.723 299.46 458.222 296.915 464.774 294.055 471.316 291.214 477.865 288.002 484.383 284.403 490.78 282.58 493.962 280.671 497.122 278.614 500.2 276.551 503.272 274.365 506.28 272.021 509.158 269.679 512.04 267.174 514.79 264.478 517.306 261.784 519.82 258.903 522.11 255.833 523.982 252.769 525.856 249.525 527.317 246.198 528.209L244.941 528.485 244.316 528.628C244.106 528.671 243.894 528.692 243.685 528.724L242.422 528.915C242.001 528.969 241.576 528.979 241.155 529.017 240.312 529.114 239.463 529.065 238.62 529.081 238.531 529.081 238.504 529.081 238.499 529.081 238.494 529.081 238.491 529.081 238.483 529.081L238.102 529.057 237.339 529.006 236.576 528.955C236.455 528.945 236.308 528.942 236.208 528.926L235.926 528.877C235.55 528.813 235.177 528.754 234.801 528.7L234.519 528.66 234.208 528.587 233.585 528.448 232.962 528.311 232.65 528.244C232.548 528.217 232.446 528.182 232.341 528.152L231.111 527.784C230.698 527.68 230.298 527.502 229.892 527.355 229.489 527.196 229.079 527.067 228.681 526.89L227.486 526.35C227.287 526.259 227.086 526.179 226.89 526.079L226.305 525.768C223.168 524.135 220.174 522.016 217.386 519.508 211.806 514.476 206.967 508.168 202.716 501.336 200.581 497.92 198.615 494.335 196.752 490.667 194.899 486.99 193.121 483.236 191.488 479.383 191.064 478.429 190.68 477.449 190.274 476.482L189.673 475.027 189.093 473.555C188.712 472.572 188.314 471.598 187.941 470.607 187.57 469.616 187.2 468.625 186.826 467.631 186.45 466.643 186.109 465.633 185.75 464.634 185.392 463.633 185.035 462.631 184.7 461.619 184.359 460.609 184.017 459.597 183.674 458.584 183.346 457.566 183.016 456.546 182.688 455.526 182.353 454.508 182.038 453.482 181.724 452.453 181.41 451.425 181.088 450.399 180.782 449.365 180.18 447.295 179.56 445.227 178.996 443.135 177.822 438.967 176.743 434.751 175.693 430.514 174.159 424.163 172.731 417.745 171.428 411.27 172.567 410.891 173.706 410.507 174.844 410.118 175.934 409.742 177.025 409.369 178.118 408.993 179.205 408.609 180.293 408.222 181.38 407.838 183.561 407.075 185.725 406.267 187.901 405.478 205.262 399.065 222.416 391.761 239.294 383.734 242.946 381.999 246.585 380.229 250.21 378.425 253.986 380.245 257.947 382.096 262.077 383.994 264.292 385.015 266.57 386.019 268.882 387.072 271.205 388.092 273.562 389.158 275.985 390.195 277.196 390.716 278.415 391.242 279.647 391.771 280.883 392.292 282.132 392.816 283.388 393.345 285.902 394.408 288.474 395.45 291.082 396.527 296.313 398.641 301.743 400.749 307.358 402.859 309.807 403.772 312.294 404.677 314.818 405.574 314.217 408.262 313.588 410.975 312.92 413.711ZM463.759 397.389 463.643 397.685C463.603 397.781 463.552 397.875 463.507 397.969L463.23 398.538 462.956 399.108 462.819 399.392C462.76 399.519 462.894 399.282 462.744 399.54L461.973 400.853 461.78 401.181C461.713 401.304 461.659 401.377 461.605 401.452L461.28 401.919 460.961 402.392 460.802 402.631C460.751 402.709 460.698 402.789 460.625 402.873L459.833 403.869C459.699 404.033 459.575 404.207 459.433 404.366L458.998 404.836 458.133 405.784C455.703 408.217 452.821 410.293 449.669 412.008 446.519 413.73 443.097 415.081 439.577 416.157 436.054 417.237 432.42 418.029 428.757 418.617 425.092 419.205 421.397 419.597 417.707 419.847 414.014 420.092 410.322 420.161 406.656 420.156 399.32 420.075 392.069 419.6 384.977 418.789 377.882 417.994 370.935 416.928 364.16 415.666 357.385 414.407 350.784 412.951 344.363 411.385 337.94 409.828 331.707 408.112 325.657 406.345 322.944 405.555 320.275 404.742 317.641 403.917 318.124 401.291 318.586 398.686 319.018 396.116 319.998 390.198 320.89 384.443 321.677 378.854 322.047 376.056 322.434 373.309 322.77 370.6 322.942 369.246 323.111 367.903 323.277 366.574 323.433 365.242 323.589 363.921 323.742 362.613 324.056 359.998 324.311 357.422 324.59 354.901 324.838 352.374 325.106 349.9 325.329 347.47 325.753 342.937 326.129 338.576 326.443 334.387 329.811 332.145 333.162 329.883 336.487 327.587 351.866 316.972 366.773 305.774 380.997 293.937 385.469 290.223 389.867 286.444 394.196 282.604 399.167 286.981 404.027 291.434 408.77 295.959 411.915 298.985 415.03 302.025 418.045 305.129 419.573 306.665 421.053 308.236 422.546 309.791 423.29 310.573 424.015 311.365 424.748 312.149 425.481 312.936 426.214 313.72 426.929 314.52 427.648 315.315 428.365 316.11 429.082 316.905 429.789 317.708 430.492 318.508 431.196 319.311 431.907 320.109 432.595 320.92 433.282 321.728 433.967 322.539 434.671 323.339 435.339 324.161 438.06 327.413 440.659 330.729 443.181 334.07 445.7 337.413 448.068 340.821 450.319 344.269 452.564 347.714 454.685 351.208 456.576 354.764 460.365 361.856 463.41 369.195 464.973 376.537 466.512 383.852 466.409 391.175 463.754 397.392Z" fill="#149ECA" transform="matrix(1 0 0 1.00044 401.054 90)"/><path d="M271.997 269.913C271.997 288.475 256.949 303.523 238.386 303.523 219.824 303.523 204.776 288.475 204.776 269.913 204.776 251.35 219.824 236.302 238.386 236.302 256.949 236.302 271.997 251.35 271.997 269.913Z" fill="#149ECA" transform="matrix(1 0 0 1.00044 401.054 90)"/></g></svg>